HIERARCHY
ROOT Hips
{
    OFFSET 0.000000 0.000000 0.000000
    CHANNELS 6 Xposition Yposition Zposition Zrotation Xrotation Yrotation
    JOINT Spine
    {
        OFFSET -0.000000 7.236184 0.000000
        CHANNELS 3 Zrotation Xrotation Yrotation
        JOINT Spine1
        {
            OFFSET -0.000000 20.420147 0.000000
            CHANNELS 3 Zrotation Xrotation Yrotation
            JOINT Neck
            {
                OFFSET -0.000000 20.336288 1.848754
                CHANNELS 3 Zrotation Xrotation Yrotation
                JOINT Head
                {
                    OFFSET -0.000000 12.354461 -1.764923
                    CHANNELS 3 Zrotation Xrotation Yrotation
                    End Site
                    {
                        OFFSET -0.000000 22.061537 0.000000
                    }
                }
            }
            JOINT LeftShoulder
            {
                OFFSET 3.573296 18.396038 -0.314103
                CHANNELS 3 Zrotation Xrotation Yrotation
                JOINT LeftArm
                {
                    OFFSET 10.880760 0.000000 0.000000
                    CHANNELS 3 Zrotation Xrotation Yrotation
                    JOINT LeftForeArm
                    {
                        OFFSET 27.185530 0.000000 0.000000
                        CHANNELS 3 Zrotation Xrotation Yrotation
                        JOINT LeftHand
                        {
                            OFFSET 27.825975 0.000000 0.000000
                            CHANNELS 3 Zrotation Xrotation Yrotation
                            End Site
                            {
                                OFFSET 13.236923 0.000000 0.000000
                            }
                        }
                    }
                }
            }
            JOINT RightShoulder
            {
                OFFSET -3.474926 18.396038 -0.314103
                CHANNELS 3 Zrotation Xrotation Yrotation
                JOINT RightArm
                {
                    OFFSET -10.880760 0.000000 0.000000
                    CHANNELS 3 Zrotation Xrotation Yrotation
                    JOINT RightForeArm
                    {
                        OFFSET -27.185530 0.000000 0.000000
                        CHANNELS 3 Zrotation Xrotation Yrotation
                        JOINT RightHand
                        {
                            OFFSET -27.825975 0.000000 0.000000
                            CHANNELS 3 Zrotation Xrotation Yrotation
                            End Site
                            {
                                OFFSET -13.236923 0.000000 0.000000
                            }
                        }
                    }
                }
            }
        }
    }
    JOINT LeftUpLeg
    {
        OFFSET 8.824615 0.000000 0.000000
        CHANNELS 3 Zrotation Xrotation Yrotation
        JOINT LeftLeg
        {
            OFFSET -0.000000 -35.111282 0.000000
            CHANNELS 3 Zrotation Xrotation Yrotation
            JOINT LeftFoot
            {
                OFFSET -0.000000 -42.324711 0.000000
                CHANNELS 3 Zrotation Xrotation Yrotation
                JOINT LeftToeBase
                {
                    OFFSET -0.000000 -5.735999 13.236923
                    CHANNELS 3 Zrotation Xrotation Yrotation
                    End Site
                    {
                        OFFSET -0.000000 0.000000 3.529846
                    }
                }
            }
        }
    }
    JOINT RightUpLeg
    {
        OFFSET -8.824615 0.000000 0.000000
        CHANNELS 3 Zrotation Xrotation Yrotation
        JOINT RightLeg
        {
            OFFSET -0.000000 -35.111282 0.000000
            CHANNELS 3 Zrotation Xrotation Yrotation
            JOINT RightFoot
            {
                OFFSET -0.000000 -42.324711 0.000000
                CHANNELS 3 Zrotation Xrotation Yrotation
                JOINT RightToeBase
                {
                    OFFSET -0.000000 -5.735999 13.236923
                    CHANNELS 3 Zrotation Xrotation Yrotation
                    End Site
                    {
                        OFFSET -0.000000 0.000000 3.529846
                    }
                }
            }
        }
    }
}
MOTION
Frames:    12
Frame Time:    0.008333
-0.942038    81.180695    97.962242    -0.298003    -4.243382    -173.873413    -1.162091    -13.835956    0.701623    0.226270    6.385147    0.830063    1.940350    4.362669    -2.201938    3.948406    1.123393    -1.978933    0.622689    18.198877    -2.817324    -43.250038    47.582169    -40.718967    -2.309250    -5.463001    -18.333551    20.198830    -5.736062    0.552188    6.438062    19.750280    -3.103053    37.798630    46.758945    42.115623    0.706537    -4.453548    16.872385    -15.022210    -4.079156    -3.641821    3.744635    -5.026010    -0.106677    -2.766626    7.914750    -2.156274    -0.478837    -6.552889    -7.378603    -0.075031    0.619191    0.083078    -3.518718    -1.307166    2.532487    3.500055    4.439596    3.736868    -2.367224    -6.413573    -13.998483    -0.509574    -0.353887    0.551412    
-0.935200    81.180801    97.960670    -0.298012    -4.244345    -173.867310    -1.160762    -13.835329    0.701441    0.222881    6.385579    0.829839    1.939589    4.360126    -2.200123    3.946771    1.121624    -1.977184    0.622788    18.197140    -2.817099    -43.244843    47.586273    -40.720798    -2.311597    -5.462808    -18.336180    20.160236    -5.738841    0.538840    6.438147    19.750885    -3.102288    37.796516    46.759460    42.118874    0.707842    -4.453058    16.871239    -15.030209    -4.078615    -3.641763    3.748024    -5.030470    -0.103735    -2.763723    7.920577    -2.164025    -0.481904    -6.553864    -7.379262    -0.073229    0.616571    0.081083    -3.515831    -1.304680    2.534291    3.504194    4.436640    3.739389    -2.374358    -6.413596    -14.008261    -0.510728    -0.354414    0.552662    
-0.928321    81.180893    97.958977    -0.297987    -4.245381    -173.861526    -1.159295    -13.834871    0.701273    0.219134    6.386158    0.829715    1.938971    4.357343    -2.198083    3.944710    1.120163    -1.975277    0.622995    18.195358    -2.816739    -43.239506    47.590355    -40.722862    -2.313909    -5.462535    -18.338375    20.121946    -5.741446    0.526011    6.438107    19.751600    -3.101520    37.794533    46.759914    42.122322    0.709241    -4.452617    16.870071    -15.038267    -4.078116    -3.641790    3.751592    -5.034698    -0.101068    -2.761063    7.926060    -2.171199    -0.484800    -6.554765    -7.379834    -0.071118    0.613838    0.078746    -3.512738    -1.302400    2.535811    3.508107    4.433798    3.741326    -2.381283    -6.413624    -14.016752    -0.511858    -0.354855    0.553885    
-0.921418    81.180977    97.957138    -0.297959    -4.246505    -173.856110    -1.157768    -13.834731    0.701169    0.215161    6.387002    0.829633    1.938203    4.354299    -2.195932    3.942557    1.118963    -1.973229    0.622956    18.193411    -2.816425    -43.234577    47.594170    -40.724300    -2.316086    -5.462170    -18.340160    20.084131    -5.743821    0.513684    6.438133    19.752195    -3.100693    37.792767    46.760361    42.125565    0.710743    -4.452248    16.868923    -15.046380    -4.077670    -3.641940    3.755417    -5.038784    -0.097820    -2.758830    7.931414    -2.179124    -0.487399    -6.555662    -7.379860    -0.068714    0.610795    0.076084    -3.509372    -1.300325    2.536838    3.511510    4.431289    3.742537    -2.385278    -6.414246    -14.023312    -0.512851    -0.355671    0.554960    
-0.914551    81.181053    97.955170    -0.297880    -4.247651    -173.851074    -1.156098    -13.834863    0.701021    0.210952    6.388048    0.829583    1.937540    4.351744    -2.193568    3.939955    1.117214    -1.971040    0.622854    18.191677    -2.816015    -43.229958    47.597424    -40.725525    -2.318324    -5.461786    -18.341511    20.047449    -5.746040    0.502089    6.438079    19.753010    -3.099551    37.790977    46.760651    42.128868    0.712321    -4.452057    16.867887    -15.054416    -4.077404    -3.642249    3.759422    -5.042507    -0.094943    -2.756830    7.936414    -2.186449    -0.489965    -6.556580    -7.379743    -0.065894    0.607599    0.072962    -3.505787    -1.298368    2.537533    3.514547    4.428921    3.743272    -2.391499    -6.414555    -14.028931    -0.513889    -0.356094    0.556083    
-0.907672    81.181107    97.953041    -0.297829    -4.248737    -173.846451    -1.154324    -13.835094    0.700942    0.206498    6.389369    0.829582    1.937011    4.348737    -2.191082    3.936666    1.115769    -1.968806    0.622584    18.189653    -2.815317    -43.226074    47.600262    -40.726177    -2.320657    -5.461335    -18.342278    20.011459    -5.748096    0.490834    6.437956    19.753717    -3.098556    37.789070    46.761215    42.132446    0.713867    -4.452035    16.866974    -15.062370    -4.077277    -3.642714    3.763605    -5.045727    -0.092398    -2.755206    7.940927    -2.193201    -0.492312    -6.557404    -7.379495    -0.062625    0.604184    0.069343    -3.501967    -1.296465    2.537807    3.517071    4.426895    3.743578    -2.396113    -6.415249    -14.033126    -0.514917    -0.356552    0.557196    
-0.900844    81.181122    97.950806    -0.297803    -4.249865    -173.842209    -1.152544    -13.835577    0.700921    0.201984    6.390938    0.829583    1.936243    4.345856    -2.188577    3.933343    1.114056    -1.966542    0.622107    18.187534    -2.814600    -43.223083    47.602337    -40.725838    -2.323141    -5.460776    -18.342793    19.976784    -5.749979    0.480196    6.437900    19.754328    -3.097415    37.787300    46.761707    42.135624    0.715391    -4.452048    16.866341    -15.070258    -4.077202    -3.643266    3.767813    -5.048788    -0.088972    -2.753537    7.945465    -2.200943    -0.494754    -6.558378    -7.378818    -0.058801    0.600364    0.065109    -3.498096    -1.294680    2.537829    3.519334    4.424980    3.743788    -2.399253    -6.416086    -14.036405    -0.515820    -0.357418    0.558173    
-0.894011    81.181122    97.948402    -0.297816    -4.250957    -173.838287    -1.150686    -13.836155    0.700908    0.197242    6.392658    0.829564    1.935554    4.342960    -2.185958    3.929497    1.112268    -1.964277    0.621629    18.185703    -2.813645    -43.220516    47.603733    -40.725456    -2.325837    -5.460318    -18.342825    19.943419    -5.751881    0.470031    6.437673    19.755047    -3.096253    37.785431    46.762325    42.139194    0.716877    -4.452298    16.865864    -15.078161    -4.077315    -3.644022    3.772134    -5.051354    -0.086225    -2.752283    7.949402    -2.207855    -0.496856    -6.559221    -7.377945    -0.054341    0.596339    0.060172    -3.494016    -1.292900    2.537451    3.521083    4.423333    3.743856    -2.402136    -6.417052    -14.038812    -0.516765    -0.358267    0.559197    
-0.887202    81.181076    97.945854    -0.297876    -4.251963    -173.834732    -1.148911    -13.836983    0.700883    0.192627    6.394771    0.829549    1.934816    4.340451    -2.183331    3.925127    1.109737    -1.961972    0.620920    18.183813    -2.812779    -43.219135    47.604168    -40.723957    -2.328757    -5.459801    -18.342571    19.911396    -5.753635    0.460411    6.437428    19.755802    -3.095032    37.783356    46.762989    42.142731    0.718186    -4.452765    16.865702    -15.086007    -4.077578    -3.644971    3.776479    -5.053483    -0.083112    -2.751070    7.953052    -2.214959    -0.499035    -6.560094    -7.376978    -0.049158    0.592082    0.054432    -3.489829    -1.291076    2.536758    3.522482    4.421821    3.743848    -2.406022    -6.417860    -14.040642    -0.517877    -0.358408    0.560400    
-0.880433    81.180992    97.943153    -0.298000    -4.252872    -173.831467    -1.147197    -13.837921    0.700791    0.188016    6.397113    0.829520    1.934124    4.337720    -2.180632    3.920218    1.107387    -1.959745    0.620262    18.182077    -2.811698    -43.218521    47.603928    -40.722076    -2.331893    -5.459282    -18.342022    19.880970    -5.755329    0.451284    6.437143    19.756481    -3.093804    37.781418    46.763664    42.146145    0.719438    -4.453301    16.865738    -15.094049    -4.077887    -3.646159    3.780894    -5.055070    -0.080637    -2.750164    7.956200    -2.221479    -0.501167    -6.560930    -7.375710    -0.043086    0.587521    0.047709    -3.485602    -1.289128    2.535793    3.523593    4.420369    3.744064    -2.409755    -6.418660    -14.042155    -0.518987    -0.358719    0.561602    
-0.873775    81.180855    97.940353    -0.298185    -4.253700    -173.828522    -1.145608    -13.838947    0.700684    0.183544    6.399615    0.829470    1.933292    4.335238    -2.178008    3.915256    1.104624    -1.957515    0.619562    18.180492    -2.810685    -43.218414    47.603195    -40.719810    -2.335139    -5.458976    -18.341269    19.852428    -5.757133    0.442697    6.436955    19.757065    -3.092644    37.779308    46.764427    42.149460    0.720592    -4.453972    16.866035    -15.102233    -4.078276    -3.647515    3.785190    -5.056173    -0.078356    -2.749296    7.958832    -2.227395    -0.503260    -6.561714    -7.374568    -0.036152    0.582735    0.040032    -3.481357    -1.287133    2.534540    3.524361    4.419032    3.744406    -2.412055    -6.419596    -14.043073    -0.520112    -0.359126    0.562819    
-0.867044    81.180664    97.937332    -0.298417    -4.254322    -173.825790    -1.144194    -13.839980    0.700496    0.179341    6.402388    0.829419    1.932520    4.333016    -2.175297    3.909541    1.101270    -1.955288    0.618826    18.179270    -2.809666    -43.218479    47.601875    -40.717659    -2.338653    -5.458847    -18.340343    19.825167    -5.759049    0.434632    6.436538    19.757515    -3.091568    37.777336    46.765247    42.152794    0.721764    -4.454712    16.866495    -15.110898    -4.078693    -3.649172    3.789620    -5.056749    -0.075519    -2.748524    7.961271    -2.233905    -0.505381    -6.562582    -7.373244    -0.028029    0.577491    0.031037    -3.476998    -1.284815    2.533162    3.524887    4.417829    3.745248    -2.413213    -6.420793    -14.044023    -0.521286    -0.359664    0.564090    
